<svg width="983" height="288" viewBox="0 0 983 288" fill="none" xmlns="http://www.w3.org/2000/svg">
    <path
        d="M74.64 86.16L134.88 168H92.04L43.32 98.76V168H7.44V9.59999H43.32V74.4L88.2 9.59999H128.64L74.64 86.16ZM204.024 86.16L264.264 168H221.424L172.704 98.76V168H136.824V9.59999H172.704V74.4L217.584 9.59999H258.024L204.024 86.16ZM352.609 135.36C359.969 135.36 366.649 134.28 372.649 132.12C378.729 129.96 383.249 127.84 386.209 125.76L401.569 156.24C397.809 159.44 391.369 162.68 382.249 165.96C373.209 169.24 362.449 170.88 349.969 170.88C338.289 170.88 327.329 168.84 317.089 164.76C306.849 160.68 297.809 154.96 289.969 147.6C282.209 140.16 276.089 131.48 271.609 121.56C267.209 111.56 265.009 100.72 265.009 89.04C265.009 77.36 267.209 66.52 271.609 56.52C276.009 46.44 282.089 37.68 289.849 30.24C297.689 22.8 306.729 17.04 316.969 12.96C327.289 8.79999 338.289 6.71999 349.969 6.71999C362.449 6.71999 373.209 8.35999 382.249 11.64C391.369 14.92 397.809 18.16 401.569 21.36L386.209 51.84C383.249 49.68 378.729 47.56 372.649 45.48C366.649 43.32 359.969 42.24 352.609 42.24C344.449 42.24 337.329 43.52 331.249 46.08C325.169 48.56 320.089 52 316.009 56.4C311.929 60.8 308.889 65.76 306.889 71.28C304.889 76.8 303.889 82.6 303.889 88.68C303.889 94.84 304.889 100.72 306.889 106.32C308.889 111.84 311.929 116.8 316.009 121.2C320.089 125.6 325.169 129.08 331.249 131.64C337.329 134.12 344.449 135.36 352.609 135.36Z"
        fill="black" />
    <path
        d="M98.422 253.63C102.906 253.63 106.603 252.883 109.514 251.388C112.425 249.815 114.391 248.556 115.414 247.612L131.816 271.92C130.557 272.943 128.394 274.28 125.326 275.932C122.258 277.505 118.403 278.882 113.762 280.062C109.199 281.242 103.968 281.832 98.068 281.832C86.976 281.832 77.2213 279.747 68.804 275.578C60.3867 271.33 53.818 265.351 49.098 257.642C44.4567 249.933 42.136 240.886 42.136 230.502C42.136 220.039 44.4567 210.993 49.098 203.362C53.818 195.731 60.3867 189.831 68.804 185.662C77.2213 181.414 86.976 179.29 98.068 179.29C103.889 179.29 109.081 179.919 113.644 181.178C118.285 182.358 122.179 183.735 125.326 185.308C128.473 186.803 130.675 188.101 131.934 189.202L115.178 213.746C114.627 213.195 113.605 212.409 112.11 211.386C110.694 210.363 108.845 209.459 106.564 208.672C104.283 207.885 101.569 207.492 98.422 207.492C94.5673 207.492 90.9487 208.475 87.566 210.442C84.262 212.409 81.5873 215.123 79.542 218.584C77.4967 222.045 76.474 226.018 76.474 230.502C76.474 234.986 77.4967 238.998 79.542 242.538C81.5873 245.999 84.262 248.713 87.566 250.68C90.9487 252.647 94.5673 253.63 98.422 253.63ZM172.828 279H136.838V116.632H172.828V279ZM261.682 279V263.306C260.974 264.879 259.165 267.161 256.254 270.15C253.422 273.139 249.646 275.853 244.926 278.292C240.206 280.652 234.7 281.832 228.406 281.832C218.966 281.832 210.706 279.551 203.626 274.988C196.546 270.347 191.04 264.171 187.106 256.462C183.173 248.674 181.206 240.06 181.206 230.62C181.206 221.18 183.173 212.605 187.106 204.896C191.04 197.108 196.546 190.893 203.626 186.252C210.706 181.611 218.966 179.29 228.406 179.29C234.464 179.29 239.774 180.273 244.336 182.24C248.899 184.128 252.596 186.409 255.428 189.084C258.26 191.68 260.227 194.079 261.328 196.282V182.122H296.964V279H261.682ZM216.37 230.62C216.37 235.025 217.393 238.998 219.438 242.538C221.484 245.999 224.198 248.713 227.58 250.68C231.042 252.647 234.857 253.63 239.026 253.63C243.353 253.63 247.168 252.647 250.472 250.68C253.776 248.713 256.372 245.999 258.26 242.538C260.227 238.998 261.21 235.025 261.21 230.62C261.21 226.215 260.227 222.281 258.26 218.82C256.372 215.28 253.776 212.527 250.472 210.56C247.168 208.515 243.353 207.492 239.026 207.492C234.857 207.492 231.042 208.515 227.58 210.56C224.198 212.527 221.484 215.28 219.438 218.82C217.393 222.281 216.37 226.215 216.37 230.62ZM353.711 179.29C360.083 179.29 365.905 179.841 371.175 180.942C376.446 181.965 380.851 183.145 384.391 184.482C388.01 185.819 390.331 186.921 391.353 187.786L379.671 208.908C378.177 207.807 375.384 206.391 371.293 204.66C367.281 202.929 362.797 202.064 357.841 202.064C354.065 202.064 350.879 202.654 348.283 203.834C345.687 204.935 344.389 206.705 344.389 209.144C344.389 211.583 345.805 213.549 348.637 215.044C351.548 216.46 355.717 217.719 361.145 218.82C365.865 219.764 370.664 221.259 375.541 223.304C380.419 225.349 384.47 228.378 387.695 232.39C390.999 236.323 392.651 241.594 392.651 248.202C392.651 254.967 391.196 260.553 388.285 264.958C385.375 269.363 381.52 272.785 376.721 275.224C371.923 277.663 366.731 279.354 361.145 280.298C355.56 281.321 350.132 281.832 344.861 281.832C337.467 281.832 331.016 281.163 325.509 279.826C320.081 278.489 315.676 276.955 312.293 275.224C308.911 273.493 306.551 272.117 305.213 271.094L316.777 247.494C318.823 249.225 322.166 251.191 326.807 253.394C331.449 255.518 336.365 256.58 341.557 256.58C346.592 256.58 350.486 255.833 353.239 254.338C355.993 252.843 357.369 250.877 357.369 248.438C357.369 246.471 356.701 244.898 355.363 243.718C354.026 242.538 352.138 241.515 349.699 240.65C347.261 239.785 344.311 238.998 340.849 238.29C337.703 237.661 334.359 236.677 330.819 235.34C327.279 234.003 323.936 232.193 320.789 229.912C317.643 227.552 315.086 224.602 313.119 221.062C311.153 217.522 310.169 213.235 310.169 208.2C310.169 201.749 312.254 196.4 316.423 192.152C320.593 187.904 325.981 184.718 332.589 182.594C339.197 180.391 346.238 179.29 353.711 179.29ZM445.678 179.29C452.05 179.29 457.871 179.841 463.142 180.942C468.412 181.965 472.818 183.145 476.358 184.482C479.976 185.819 482.297 186.921 483.32 187.786L471.638 208.908C470.143 207.807 467.35 206.391 463.26 204.66C459.248 202.929 454.764 202.064 449.808 202.064C446.032 202.064 442.846 202.654 440.25 203.834C437.654 204.935 436.356 206.705 436.356 209.144C436.356 211.583 437.772 213.549 440.604 215.044C443.514 216.46 447.684 217.719 453.112 218.82C457.832 219.764 462.63 221.259 467.508 223.304C472.385 225.349 476.436 228.378 479.662 232.39C482.966 236.323 484.618 241.594 484.618 248.202C484.618 254.967 483.162 260.553 480.252 264.958C477.341 269.363 473.486 272.785 468.688 275.224C463.889 277.663 458.697 279.354 453.112 280.298C447.526 281.321 442.098 281.832 436.828 281.832C429.433 281.832 422.982 281.163 417.476 279.826C412.048 278.489 407.642 276.955 404.26 275.224C400.877 273.493 398.517 272.117 397.18 271.094L408.744 247.494C410.789 249.225 414.132 251.191 418.774 253.394C423.415 255.518 428.332 256.58 433.524 256.58C438.558 256.58 442.452 255.833 445.206 254.338C447.959 252.843 449.336 250.877 449.336 248.438C449.336 246.471 448.667 244.898 447.33 243.718C445.992 242.538 444.104 241.515 441.666 240.65C439.227 239.785 436.277 238.998 432.816 238.29C429.669 237.661 426.326 236.677 422.786 235.34C419.246 234.003 415.902 232.193 412.756 229.912C409.609 227.552 407.052 224.602 405.086 221.062C403.119 217.522 402.136 213.235 402.136 208.2C402.136 201.749 404.22 196.4 408.39 192.152C412.559 187.904 417.948 184.718 424.556 182.594C431.164 180.391 438.204 179.29 445.678 179.29ZM527.024 279H491.152V182.122H527.024V197.108H526.434C527.063 195.299 528.597 193.017 531.036 190.264C533.474 187.432 536.896 184.915 541.302 182.712C545.707 180.431 551.096 179.29 557.468 179.29C561.952 179.29 566.082 179.998 569.858 181.414C573.634 182.751 576.387 184.049 578.118 185.308L564.194 214.454C563.092 213.117 561.126 211.74 558.294 210.324C555.54 208.829 552.079 208.082 547.91 208.082C543.111 208.082 539.138 209.301 535.992 211.74C532.924 214.179 530.642 217.129 529.148 220.59C527.732 224.051 527.024 227.316 527.024 230.384V279ZM625.139 281.832C614.519 281.832 605.079 279.669 596.819 275.342C588.638 270.937 582.187 264.919 577.467 257.288C572.826 249.579 570.505 240.768 570.505 230.856C570.505 220.944 572.826 212.133 577.467 204.424C582.187 196.636 588.638 190.5 596.819 186.016C605.079 181.532 614.519 179.29 625.139 179.29C635.759 179.29 645.12 181.532 653.223 186.016C661.326 190.5 667.658 196.636 672.221 204.424C676.784 212.133 679.065 220.944 679.065 230.856C679.065 240.768 676.784 249.579 672.221 257.288C667.658 264.919 661.326 270.937 653.223 275.342C645.12 279.669 635.759 281.832 625.139 281.832ZM625.139 252.332C629.23 252.332 632.77 251.427 635.759 249.618C638.748 247.809 641.069 245.252 642.721 241.948C644.373 238.644 645.199 234.907 645.199 230.738C645.199 226.49 644.373 222.714 642.721 219.41C641.069 216.106 638.748 213.51 635.759 211.622C632.77 209.734 629.23 208.79 625.139 208.79C621.048 208.79 617.469 209.734 614.401 211.622C611.412 213.51 609.052 216.106 607.321 219.41C605.669 222.714 604.843 226.49 604.843 230.738C604.843 234.907 605.669 238.644 607.321 241.948C609.052 245.252 611.412 247.809 614.401 249.618C617.469 251.427 621.048 252.332 625.139 252.332ZM737.617 281.832C726.997 281.832 717.557 279.669 709.297 275.342C701.116 270.937 694.665 264.919 689.945 257.288C685.304 249.579 682.983 240.768 682.983 230.856C682.983 220.944 685.304 212.133 689.945 204.424C694.665 196.636 701.116 190.5 709.297 186.016C717.557 181.532 726.997 179.29 737.617 179.29C748.237 179.29 757.598 181.532 765.701 186.016C773.804 190.5 780.136 196.636 784.699 204.424C789.262 212.133 791.543 220.944 791.543 230.856C791.543 240.768 789.262 249.579 784.699 257.288C780.136 264.919 773.804 270.937 765.701 275.342C757.598 279.669 748.237 281.832 737.617 281.832ZM737.617 252.332C741.708 252.332 745.248 251.427 748.237 249.618C751.226 247.809 753.547 245.252 755.199 241.948C756.851 238.644 757.677 234.907 757.677 230.738C757.677 226.49 756.851 222.714 755.199 219.41C753.547 216.106 751.226 213.51 748.237 211.622C745.248 209.734 741.708 208.79 737.617 208.79C733.526 208.79 729.947 209.734 726.879 211.622C723.89 213.51 721.53 216.106 719.799 219.41C718.147 222.714 717.321 226.49 717.321 230.738C717.321 234.907 718.147 238.644 719.799 241.948C721.53 245.252 723.89 247.809 726.879 249.618C729.947 251.427 733.526 252.332 737.617 252.332ZM933.993 179.29C941.309 179.29 947.76 180.824 953.345 183.892C958.93 186.881 963.296 191.523 966.443 197.816C969.668 204.109 971.281 212.212 971.281 222.124V279H935.999V227.552C935.999 220.787 934.976 215.319 932.931 211.15C930.886 206.981 926.834 204.896 920.777 204.896C917.158 204.896 913.972 205.84 911.219 207.728C908.466 209.616 906.342 212.251 904.847 215.634C903.352 218.938 902.605 222.911 902.605 227.552V279H869.683V227.552C869.683 220.787 868.542 215.319 866.261 211.15C864.058 206.981 860.125 204.896 854.461 204.896C850.842 204.896 847.656 205.84 844.903 207.728C842.15 209.537 840.026 212.133 838.531 215.516C837.115 218.82 836.407 222.832 836.407 227.552V279H800.771V182.122H836.407V195.928C837.351 193.489 839.396 191.011 842.543 188.494C845.768 185.898 849.741 183.735 854.461 182.004C859.181 180.195 864.176 179.29 869.447 179.29C875.19 179.29 879.988 180.155 883.843 181.886C887.698 183.538 890.844 185.78 893.283 188.612C895.8 191.444 897.806 194.512 899.301 197.816C900.402 194.984 902.566 192.152 905.791 189.32C909.095 186.409 913.186 184.01 918.063 182.122C923.019 180.234 928.329 179.29 933.993 179.29Z"
        fill="black" />
</svg>
    